<?xml version="1.0" encoding="utf-8"?>
<!DOCTYPE svg PUBLIC "-//W3C//DTD SVG 1.1//EN" "http://www.w3.org/Graphics/SVG/1.1/DTD/svg11.dtd">
<svg version="1.1" id="Layer_1" xmlns="http://www.w3.org/2000/svg" xmlns:xlink="http://www.w3.org/1999/xlink" x="0px" y="0px"
	 width="306px" height="270px" viewBox="0 0 306 270" enable-background="new 0 0 306 270" xml:space="preserve">
<line fill="none" stroke="#0081CD" stroke-width="3" x1="279" y1="90" x2="189" y2="18"/>
<polyline fill="none" stroke="#0081CD" stroke-width="3" points="81,90 189,18 189,90 "/>
<polyline fill="none" stroke="#0081CD" stroke-width="3" points="27,234 27,162 81,90 135,162 "/>
<circle fill="#0081CD" stroke="#000000" cx="189" cy="18" r="9"/>
<circle fill="#0081CD" stroke="#000000" cx="81" cy="90" r="9"/>
<circle fill="#0081CD" stroke="#000000" cx="189" cy="90" r="9"/>
<circle fill="#0081CD" stroke="#000000" cx="279" cy="90" r="9"/>
<circle fill="#0081CD" stroke="#000000" cx="27" cy="162" r="9"/>
<circle fill="#0081CD" stroke="#000000" cx="27" cy="234" r="9"/>
<circle fill="#0081CD" stroke="#000000" cx="135" cy="162" r="9"/>
<text transform="matrix(1 0 0 1 119.9995 54.0005)" font-family="Liberation Serif" font-style="normal" font-size="24">1</text>
<text transform="matrix(1 0 0 1 174 54)" font-family="Liberation Serif" font-style="normal" font-size="24">3</text>
<text transform="matrix(1 0 0 1 236.9995 54.0005)" font-family="Liberation Serif" font-style="normal" font-size="24">5</text>
<text transform="matrix(1 0 0 1 38.9995 126.0005)" font-family="Liberation Serif" font-style="normal" font-size="24">2</text>
<text transform="matrix(1 0 0 1 110.9995 126.0005)" font-family="Liberation Serif" font-style="normal" font-size="24">4</text>
<text transform="matrix(1 0 0 1 11.9995 207.0005)" font-family="Liberation Serif" font-style="normal" font-size="24">6</text>
<g>
	<g>
		<path fill="none" stroke="#BC1E47" d="M171,9C171,9,9,81,9,162c0,90.854-2.709,99,18,99c9,0,18-9,18-45c0-63,18-99,36-99
			s36,63,54,63s27-36,9-54c-37.448-37.448-9-63,18-72c30.24-10.08-19.208,54,27,54c27,0,9-54,27-54c9,0,45,54,72,54s0-54-63-90"/>
		<path fill="#BC1E47" d="M219.76,15.006c2.988,0.494,6.939,0.681,9.779,0.112l-3.852,3.275l-0.866,4.981
			C223.87,20.639,221.703,17.329,219.76,15.006z"/>
	</g>
</g>
<text transform="matrix(1 0 0 1 83.9995 234.0005)" font-family="Liberation Serif" font-style="normal" font-size="24">1,2,6,6,2,4,4,1,3,3,5,5</text>
</svg>
